<svg width="16" height="16" viewBox="0 0 16 16" fill="none" xmlns="http://www.w3.org/2000/svg">
<rect width="16" height="16" fill="#1E1E1E"/>
<rect width="16" height="16" rx="1" fill="#DB7093"/>
<path d="M8.82955 5.45455C8.77841 5.02273 8.57102 4.6875 8.20739 4.44886C7.84375 4.21023 7.39773 4.09091 6.86932 4.09091C6.48295 4.09091 6.14489 4.15341 5.85511 4.27841C5.56818 4.40341 5.34375 4.57528 5.18182 4.79403C5.02273 5.01278 4.94318 5.26136 4.94318 5.53977C4.94318 5.77273 4.99858 5.97301 5.10938 6.14062C5.22301 6.3054 5.3679 6.44318 5.54403 6.55398C5.72017 6.66193 5.90483 6.75142 6.09801 6.82244C6.29119 6.89062 6.46875 6.94602 6.63068 6.98864L7.51705 7.22727C7.74432 7.28693 7.99716 7.36932 8.27557 7.47443C8.55682 7.57955 8.82528 7.72301 9.08097 7.90483C9.33949 8.08381 9.55256 8.31392 9.72017 8.59517C9.88778 8.87642 9.97159 9.22159 9.97159 9.63068C9.97159 10.1023 9.84801 10.5284 9.60085 10.9091C9.35653 11.2898 8.99858 11.5923 8.52699 11.8168C8.05824 12.0412 7.48864 12.1534 6.81818 12.1534C6.19318 12.1534 5.65199 12.0526 5.1946 11.8509C4.74006 11.6491 4.3821 11.3679 4.12074 11.0071C3.86222 10.6463 3.71591 10.2273 3.68182 9.75H4.77273C4.80114 10.0795 4.91193 10.3523 5.10511 10.5682C5.30114 10.7812 5.5483 10.9403 5.84659 11.0455C6.14773 11.1477 6.47159 11.1989 6.81818 11.1989C7.22159 11.1989 7.58381 11.1335 7.90483 11.0028C8.22585 10.8693 8.48011 10.6847 8.66761 10.4489C8.85511 10.2102 8.94886 9.93182 8.94886 9.61364C8.94886 9.32386 8.8679 9.08807 8.70597 8.90625C8.54403 8.72443 8.33097 8.5767 8.06676 8.46307C7.80256 8.34943 7.51705 8.25 7.21023 8.16477L6.13636 7.85795C5.45455 7.66193 4.91477 7.3821 4.51705 7.01847C4.11932 6.65483 3.92045 6.17898 3.92045 5.59091C3.92045 5.10227 4.05256 4.67614 4.31676 4.3125C4.58381 3.94602 4.94176 3.66193 5.39062 3.46023C5.84233 3.25568 6.34659 3.15341 6.90341 3.15341C7.46591 3.15341 7.96591 3.25426 8.40341 3.45597C8.84091 3.65483 9.1875 3.92756 9.44318 4.27415C9.7017 4.62074 9.83807 5.0142 9.85227 5.45455H8.82955ZM12.3058 12.0682C12.0955 12.0682 11.9151 11.9929 11.7646 11.8423C11.614 11.6918 11.5387 11.5114 11.5387 11.3011C11.5387 11.0909 11.614 10.9105 11.7646 10.7599C11.9151 10.6094 12.0955 10.5341 12.3058 10.5341C12.516 10.5341 12.6964 10.6094 12.8469 10.7599C12.9975 10.9105 13.0728 11.0909 13.0728 11.3011C13.0728 11.4403 13.0373 11.5682 12.9663 11.6847C12.8981 11.8011 12.8058 11.8949 12.6893 11.9659C12.5756 12.0341 12.4478 12.0682 12.3058 12.0682Z" fill="white"/>
</svg>
